  <svg width="20" height="29" viewBox="0 0 20 29" fill="none" xmlns="http://www.w3.org/2000/svg">
        <path d="M14.7405 7.21598L0.985031 20.9783L-4.56241 26.5257L-4.74069 26.3954L-5.63212 27.28L-6.17383 27.1703V26.1143L-5.73497 25.6343L0.985031 18.256L12.7999 5.26855L14.6993 7.17484L14.7405 7.21598Z" fill="#008C00"/>
        <path d="M18.6825 11.1517L0.970542 28.6169L-2.13574 27.9929L16.6665 9.18374L15.9603 8.50488H16.0288L18.6825 11.1517Z" fill="#008C00"/>
        <path d="M18.3542 3.60203L18.3405 3.61575L14.7405 7.21575L0.985031 20.978L-4.56241 26.5255L-4.74069 26.3952L-5.73497 25.634L-6.17383 25.3117V23.8923L0.985031 16.8295L16.3382 1.68203L16.3862 1.63403L18.3542 3.60203Z" fill="#FF9400"/>
        <path d="M17.3529 8.50488L16.6946 9.16317L16.6672 9.18374L15.9609 8.50488H17.3529Z" fill="white"/>
        <path d="M18.8758 4.10956V4.13699L18.3409 3.61585L14.7478 7.21585L-4.56195 26.5256L-4.74023 26.3953L14.6998 7.17471L18.3203 3.59528L18.3409 3.57471L18.8758 4.10956Z" fill="white"/>
        <path d="M18.8746 0.886719V4.137L18.3398 3.61586L18.3192 3.59529L16.3375 1.68215L15.5146 0.886719H18.8746Z" fill="#FF9400"/>
        <path d="M19.3278 8.50488V11.7415L17.8809 10.3563L16.6672 9.18374L15.9609 8.50488H19.3278Z" fill="#008C00"/>
        </svg>